#!OML:ASF I:\Actors\actors\Patient Classification 1\Patient 1\Session 1\Subject1.ASF
:FULLY-SPECIFIED
:DEGREES
316
root 0.49614 17.5291 9.19693 15.2754 -21.1806 -7.30839
lowerback 6.47455 -1.88742 9.77904
upperback -6.78691 -0.979959 5.14895
thorax -11.1389 -1.02159 0.292729
lowerneck -15.2016 -3.15115 -1.87971
upperneck 18.3711 -3.22046 -3.42737
head 8.1863 -2.02549 -1.2038
rclavicle -4.7932e-014 -4.77083e-015
rhumerus 2.27153 18.3536 -91.7479
rradius 64.8676
rwrist -28.6304
rhand -0.968449 -40.2927
rfingers 7.12502
rthumb 24.6624 -68.7235
lclavicle -4.7932e-014 -4.77083e-015
lhumerus 8.19206 -25.3146 103.386
lradius 53.2099
lwrist 64.6803
lhand -52.1752 -10.6967
lfingers 7.12502
lthumb -24.6754 17.7323
rfemur -18.2421 26.4282 19.133
rtibia 10.0469
rfoot -8.44504 -8.61883
rtoes -6.37597
lfemur 5.11275 -43.3657 -16.5385
ltibia -3.99992
lfoot -56.1624 58.6033
ltoes 32.1312
317
root 0.501784 17.529 9.18894 15.3054 -20.8812 -7.35453
lowerback 6.54654 -2.00323 9.90596
upperback -6.6889 -1.10943 5.25984
thorax -11.0848 -1.08419 0.363552
lowerneck -16.4605 -3.02997 -0.573622
upperneck 19.0553 -2.97523 -5.09517
head 8.59385 -2.00901 -1.99032
rclavicle 2.2413e-014 5.56597e-015
rhumerus 2.69181 18.7562 -91.1433
rradius 65.3219
rwrist -29.5148
rhand 0.457515 -43.4808
rfingers 7.12502
rthumb 26.0285 -71.7179
lclavicle 2.2413e-014 5.56597e-015
lhumerus 8.58641 -25.7013 102.955
lradius 53.0848
lwrist 64.7309
lhand -52.907 -11.2733
lfingers 7.12502
lthumb -25.3767 17.058
rfemur -18.26 26.3417 19.1746
rtibia 10.0474
rfoot -8.45368 -8.81722
rtoes -6.54669
lfemur 4.83687 -43.276 -16.2232
ltibia -3.97448
lfoot -55.4001 58.5301
ltoes 31.8945
318
root 0.508749 17.5297 9.18195 15.2831 -20.6043 -7.30344
lowerback 6.57816 -2.11331 9.91371
upperback -6.51694 -1.25819 5.36474
thorax -10.9171 -1.14242 0.489033
lowerneck -16.5809 -2.89667 -0.322846
upperneck 18.5975 -2.83093 -5.25113
head 8.45695 -1.93401 -2.05857
rclavicle 7.16619e-014 2.22639e-014
rhumerus 3.31463 19.1707 -90.2773
rradius 65.812
rwrist -29.9373
rhand -0.296388 -46.6131
rfingers 7.12502
rthumb 25.3065 -74.9543
lclavicle 7.16619e-014 2.22639e-014
lhumerus 9.0891 -26.1746 102.445
lradius 53.0142
lwrist 64.9588
lhand -53.5746 -12.2484
lfingers 7.12502
lthumb -26.016 15.9905
rfemur -18.2518 26.2167 19.1214
rtibia 10.0476
rfoot -8.48019 -8.98626
rtoes -6.56632
lfemur 4.74226 -43.4681 -16.1737
ltibia -4.00072
lfoot -55.1794 58.5356
ltoes 31.897
319
root 0.515874 17.5307 9.17385 15.1942 -20.304 -7.16552
lowerback 6.7479 -2.26162 9.76287
upperback -6.37151 -1.45052 5.51002
thorax -10.8575 -1.21098 0.760541
lowerneck -16.684 -2.73984 -0.208177
upperneck 18.1634 -2.63413 -5.34293
head 8.33142 -1.83749 -2.07714
rclavicle 7.86193e-014 -1.74931e-014
rhumerus 3.95466 19.8784 -89.1942
rradius 66.308
rwrist -30.6133
rhand -0.90097 -45.0133
rfingers 7.12502
rthumb 24.7271 -73.4353
lclavicle 7.86193e-014 -1.74931e-014
lhumerus 9.52984 -26.6729 101.937
lradius 53.0832
lwrist 65.0892
lhand -54.3278 -13.46
lfingers 7.12502
lthumb -26.7371 14.6709
rfemur -18.1876 26.0105 19.0064
rtibia 10.0045
rfoot -8.48958 -9.13313
rtoes -6.56226
lfemur 4.74057 -43.7271 -16.2905
ltibia -4.05744
lfoot -54.8558 58.6915
ltoes 31.6778
320
root 0.524529 17.5313 9.16383 15.0973 -19.9069 -7.04911
lowerback 6.91994 -2.46489 9.69584
upperback -6.2232 -1.70795 5.64595
thorax -10.8032 -1.31785 0.988096
lowerneck -16.614 -2.56365 0.0182053
upperneck 17.5367 -2.42694 -5.55275
head 8.10852 -1.73645 -2.14465
rclavicle -1.35671e-014 5.725e-014
rhumerus 4.63031 20.8094 -88.0091
rradius 66.58
rwrist -31.7087
rhand -0.0460952 -47.8757
rfingers 7.12502
rthumb 25.5462 -76.1828
lclavicle -1.35671e-014 5.725e-014
lhumerus 10.0223 -27.309 101.252
lradius 53.2324
lwrist 64.9898
lhand -55.1963 -14.6663
lfingers 7.12502
lthumb -27.5679 13.3348
rfemur -18.0848 25.7881 18.9132
rtibia 9.89116
rfoot -8.46904 -9.3392
rtoes -6.3225
lfemur 4.64494 -43.8739 -16.2976
ltibia -4.08046
lfoot -54.0423 58.8384
ltoes 31.188
